<mxfile host="app.diagrams.net" modified="2021-03-12T15:32:12.359Z" agent="5.0 (Windows NT 10.0; Win64; x64) AppleWebKit/537.36 (KHTML, like Gecko) Chrome/88.0.4324.190 Safari/537.36" etag="m4BObRxih6_H2jGk3_0O" version="14.4.7" type="github">
  <diagram name="Page-1" id="13e1069c-82ec-6db2-03f1-153e76fe0fe0">
    <mxGraphModel dx="1422" dy="762" grid="1" gridSize="10" guides="1" tooltips="1" connect="1" arrows="1" fold="1" page="1" pageScale="1" pageWidth="1100" pageHeight="850" background="#ffffff" math="0" shadow="0">
      <root>
        <mxCell id="0" />
        <mxCell id="1" parent="0" />
        <mxCell id="FDuW5T6w23psz0ph_W9L-1" value="Teleport működése" style="shape=umlFrame;whiteSpace=wrap;html=1;width=90;height=40;" parent="1" vertex="1">
          <mxGeometry x="140" y="20" width="770" height="400" as="geometry" />
        </mxCell>
        <mxCell id="xq6RAXwcccBxe6sGR83r-1" value="h: Hajo" style="shape=umlLifeline;perimeter=lifelinePerimeter;whiteSpace=wrap;html=1;container=1;collapsible=0;recursiveResize=0;outlineConnect=0;" parent="1" vertex="1">
          <mxGeometry x="795" y="45" width="100" height="355" as="geometry" />
        </mxCell>
        <mxCell id="xq6RAXwcccBxe6sGR83r-2" value="t: Teleportkapu" style="shape=umlLifeline;perimeter=lifelinePerimeter;whiteSpace=wrap;html=1;container=1;collapsible=0;recursiveResize=0;outlineConnect=0;" parent="1" vertex="1">
          <mxGeometry x="280" y="40" width="100" height="370" as="geometry" />
        </mxCell>
        <mxCell id="xq6RAXwcccBxe6sGR83r-14" value="" style="html=1;points=[];perimeter=orthogonalPerimeter;" parent="xq6RAXwcccBxe6sGR83r-2" vertex="1">
          <mxGeometry x="45" y="100" width="10" height="210" as="geometry" />
        </mxCell>
        <mxCell id="xq6RAXwcccBxe6sGR83r-15" value="1 : HajoErkezik(h : Hajo)" style="html=1;verticalAlign=bottom;endArrow=block;entryX=0;entryY=0;" parent="1" target="xq6RAXwcccBxe6sGR83r-14" edge="1">
          <mxGeometry x="0.1892" y="10" relative="1" as="geometry">
            <mxPoint x="140" y="140" as="sourcePoint" />
            <Array as="points">
              <mxPoint x="190" y="140" />
            </Array>
            <mxPoint as="offset" />
          </mxGeometry>
        </mxCell>
        <mxCell id="xq6RAXwcccBxe6sGR83r-17" value="par: Teleportkapu" style="shape=umlLifeline;perimeter=lifelinePerimeter;whiteSpace=wrap;html=1;container=1;collapsible=0;recursiveResize=0;outlineConnect=0;" parent="1" vertex="1">
          <mxGeometry x="450" y="40" width="100" height="360" as="geometry" />
        </mxCell>
        <mxCell id="xq6RAXwcccBxe6sGR83r-18" value="" style="html=1;points=[];perimeter=orthogonalPerimeter;" parent="xq6RAXwcccBxe6sGR83r-17" vertex="1">
          <mxGeometry x="45" y="120" width="10" height="180" as="geometry" />
        </mxCell>
        <mxCell id="xq6RAXwcccBxe6sGR83r-19" value="a : Aszteroida" style="shape=umlLifeline;perimeter=lifelinePerimeter;whiteSpace=wrap;html=1;container=1;collapsible=0;recursiveResize=0;outlineConnect=0;" parent="1" vertex="1">
          <mxGeometry x="630" y="40" width="100" height="360" as="geometry" />
        </mxCell>
        <mxCell id="xq6RAXwcccBxe6sGR83r-20" value="" style="html=1;points=[];perimeter=orthogonalPerimeter;" parent="xq6RAXwcccBxe6sGR83r-19" vertex="1">
          <mxGeometry x="45" y="140" width="10" height="150" as="geometry" />
        </mxCell>
        <mxCell id="xq6RAXwcccBxe6sGR83r-21" value="2 : HajoTeleportErkezik(h: Hajo)" style="html=1;verticalAlign=bottom;endArrow=block;" parent="1" target="xq6RAXwcccBxe6sGR83r-18" edge="1">
          <mxGeometry width="80" relative="1" as="geometry">
            <mxPoint x="340" y="160" as="sourcePoint" />
            <mxPoint x="470" y="203" as="targetPoint" />
            <Array as="points">
              <mxPoint x="410" y="160" />
            </Array>
          </mxGeometry>
        </mxCell>
        <mxCell id="xq6RAXwcccBxe6sGR83r-22" value="3 : HajoErkezik(h: Hajo)" style="html=1;verticalAlign=bottom;endArrow=block;entryX=0.31;entryY=0.002;entryDx=0;entryDy=0;entryPerimeter=0;exitX=1.069;exitY=0.109;exitDx=0;exitDy=0;exitPerimeter=0;" parent="1" source="xq6RAXwcccBxe6sGR83r-18" target="xq6RAXwcccBxe6sGR83r-20" edge="1">
          <mxGeometry width="80" relative="1" as="geometry">
            <mxPoint x="490" y="180" as="sourcePoint" />
            <mxPoint x="670" y="180" as="targetPoint" />
          </mxGeometry>
        </mxCell>
        <mxCell id="xq6RAXwcccBxe6sGR83r-26" value="" style="html=1;verticalAlign=bottom;endArrow=open;dashed=1;endSize=8;" parent="1" source="xq6RAXwcccBxe6sGR83r-12" target="xq6RAXwcccBxe6sGR83r-20" edge="1">
          <mxGeometry relative="1" as="geometry">
            <mxPoint x="260" y="290" as="sourcePoint" />
            <mxPoint x="180" y="290" as="targetPoint" />
            <Array as="points">
              <mxPoint x="750" y="270" />
            </Array>
          </mxGeometry>
        </mxCell>
        <mxCell id="xq6RAXwcccBxe6sGR83r-27" value="" style="html=1;verticalAlign=bottom;endArrow=open;dashed=1;endSize=8;entryX=1;entryY=0.941;entryDx=0;entryDy=0;entryPerimeter=0;" parent="1" source="xq6RAXwcccBxe6sGR83r-20" target="xq6RAXwcccBxe6sGR83r-18" edge="1">
          <mxGeometry relative="1" as="geometry">
            <mxPoint x="260" y="160" as="sourcePoint" />
            <mxPoint x="490" y="330" as="targetPoint" />
          </mxGeometry>
        </mxCell>
        <mxCell id="xq6RAXwcccBxe6sGR83r-28" value="" style="html=1;verticalAlign=bottom;endArrow=open;dashed=1;endSize=8;exitX=-0.3;exitY=0.989;exitDx=0;exitDy=0;exitPerimeter=0;" parent="1" source="xq6RAXwcccBxe6sGR83r-18" target="xq6RAXwcccBxe6sGR83r-14" edge="1">
          <mxGeometry relative="1" as="geometry">
            <mxPoint x="260" y="160" as="sourcePoint" />
            <mxPoint x="180" y="160" as="targetPoint" />
          </mxGeometry>
        </mxCell>
        <mxCell id="xq6RAXwcccBxe6sGR83r-29" value="" style="html=1;verticalAlign=bottom;endArrow=open;dashed=1;endSize=8;exitX=-0.19;exitY=0.998;exitDx=0;exitDy=0;exitPerimeter=0;" parent="1" source="xq6RAXwcccBxe6sGR83r-14" edge="1">
          <mxGeometry relative="1" as="geometry">
            <mxPoint x="240" y="220" as="sourcePoint" />
            <mxPoint x="140" y="350" as="targetPoint" />
          </mxGeometry>
        </mxCell>
        <mxCell id="xq6RAXwcccBxe6sGR83r-32" value="6 : MezoBeallit(a: Mezo)" style="html=1;verticalAlign=bottom;endArrow=block;" parent="1" source="xq6RAXwcccBxe6sGR83r-20" target="xq6RAXwcccBxe6sGR83r-1" edge="1">
          <mxGeometry width="80" relative="1" as="geometry">
            <mxPoint x="660" y="240" as="sourcePoint" />
            <mxPoint x="155" y="240" as="targetPoint" />
            <Array as="points">
              <mxPoint x="750" y="240" />
            </Array>
          </mxGeometry>
        </mxCell>
        <mxCell id="xq6RAXwcccBxe6sGR83r-12" value="" style="html=1;points=[];perimeter=orthogonalPerimeter;" parent="1" vertex="1">
          <mxGeometry x="840" y="240" width="10" height="30" as="geometry" />
        </mxCell>
      </root>
    </mxGraphModel>
  </diagram>
</mxfile>
